{
  "accessors": [
    {
      "bufferView": 2,
      "componentType": 5126,
      "count": 18147,
      "max": [
        12.596137046813965,
        -2.3744711875915527,
        1.8965644836425781
      ],
      "min": [
        -12.65791130065918,
        -19.922843933105469,
        -0.52959823608398438
      ],
      "type": "VEC3"
    },
    {
      "bufferView": 2,
      "byteOffset": 217764,
      "componentType": 5126,
      "count": 18147,
      "max": [
        0.99999916553497314,
        0.99999922513961792,
        1
      ],
      "min": [
        -0.9999992847442627,
        -0.99999916553497314,
        -0.99999886751174927
      ],
      "type": "VEC3"
    },
    {
      "bufferView": 3,
      "componentType": 5126,
      "count": 18147,
      "max": [
        1,
        1,
        0.98367154598236084,
        -1
      ],
      "min": [
        -1,
        -1,
        -0.99923151731491089,
        -1
      ],
      "type": "VEC4"
    },
    {
      "bufferView": 1,
      "componentType": 5126,
      "count": 18147,
      "max": [
        0.99945998191833496,
        0.99975597858428955
      ],
      "min": [
        0.00024399999529123306,
        0.00037200000951997936
      ],
      "type": "VEC2"
    },
    {
      "bufferView": 0,
      "componentType": 5125,
      "count": 60000,
      "max": [
        18146
      ],
      "min": [
        0
      ],
      "type": "SCALAR"
    }
  ],
  "asset": {
    "extras": {
      "author": "theovasilis (https://sketchfab.com/theovasilis)",
      "license": "CC-BY-4.0 (http://creativecommons.org/licenses/by/4.0/)",
      "source": "https://sketchfab.com/3d-models/brick-wall-united-kingdom-01d2b161591a4b0b899cdcbe7d206d6d",
      "title": "Brick wall United Kingdom"
    },
    "generator": "Sketchfab-5.68.0",
    "version": "2.0"
  },
  "bufferViews": [
    {
      "buffer": 0,
      "byteLength": 240000,
      "byteOffset": 0,
      "name": "floatBufferViews",
      "target": 34963
    },
    {
      "buffer": 0,
      "byteLength": 145176,
      "byteOffset": 240000,
      "byteStride": 8,
      "name": "floatBufferViews",
      "target": 34962
    },
    {
      "buffer": 0,
      "byteLength": 435528,
      "byteOffset": 385176,
      "byteStride": 12,
      "name": "floatBufferViews",
      "target": 34962
    },
    {
      "buffer": 0,
      "byteLength": 290352,
      "byteOffset": 820704,
      "byteStride": 16,
      "name": "floatBufferViews",
      "target": 34962
    }
  ],
  "buffers": [
    {
      "byteLength": 1111056,
      "uri": "scene.bin"
    }
  ],
  "images": [
    {
      "uri": "textures/wall2_Material_u1_v1_baseColor.jpeg"
    },
    {
      "uri": "textures/wall2_Material_u1_v1_metallicRoughness.png"
    }
  ],
  "materials": [
    {
      "doubleSided": true,
      "emissiveFactor": [
        0,
        0,
        0
      ],
      "name": "wall2_Material_u1_v1",
      "pbrMetallicRoughness": {
        "baseColorFactor": [
          1,
          1,
          1,
          1
        ],
        "baseColorTexture": {
          "index": 0,
          "texCoord": 0
        },
        "metallicFactor": 0,
        "metallicRoughnessTexture": {
          "index": 1,
          "texCoord": 0
        },
        "roughnessFactor": 1
      }
    }
  ],
  "meshes": [
    {
      "primitives": [
        {
          "attributes": {
            "NORMAL": 1,
            "POSITION": 0,
            "TANGENT": 2,
            "TEXCOORD_0": 3
          },
          "indices": 4,
          "material": 0,
          "mode": 4
        }
      ]
    }
  ],
  "nodes": [
    {
      "children": [
        1
      ],
      "name": "RootNode (gltf orientation matrix)",
      "rotation": [
        -0.70710678118654746,
        -0,
        -0,
        0.70710678118654757
      ]
    },
    {
      "children": [
        2
      ],
      "matrix": [
        1,
        0,
        0,
        0,
        0,
        -0.023450532928109169,
        -0.99972498416900635,
        0,
        0,
        0.99972498416900635,
        -0.023450532928109169,
        0,
        0,
        -12.093353271484375,
        -10.446039199829102,
        1
      ],
      "name": "RootNode (model correction matrix)"
    },
    {
      "children": [
        3
      ],
      "name": "wall2.obj.cleaner.materialmerger.gles"
    },
    {
      "mesh": 0,
      "name": ""
    }
  ],
  "samplers": [
    {
      "magFilter": 9729,
      "minFilter": 9987,
      "wrapS": 10497,
      "wrapT": 10497
    }
  ],
  "scene": 0,
  "scenes": [
    {
      "name": "OSG_Scene",
      "nodes": [
        0
      ]
    }
  ],
  "textures": [
    {
      "sampler": 0,
      "source": 0
    },
    {
      "sampler": 0,
      "source": 1
    }
  ]
}

